<svg width="878" height="525" viewBox="0 0 878 525" fill="none" xmlns="http://www.w3.org/2000/svg">
<g clip-path="url(#clip0_488_3673)">
<path d="M672.218 519.063C660.977 509.563 654.149 494.557 655.94 479.947C657.73 465.338 668.821 451.908 683.206 448.805C697.592 445.703 713.991 454.291 718.361 468.346C720.765 441.248 723.536 413.016 737.941 389.94C750.984 369.045 773.574 354.094 798.057 351.42C822.54 348.745 848.318 358.847 863.587 378.174C878.856 397.501 882.595 425.599 871.901 447.788C864.023 464.134 849.509 476.299 834.301 486.195C785.162 517.906 726.225 530.801 668.336 522.509L672.218 519.063Z" fill="#F2F2F2"/>
<path d="M839.376 359.407C819.175 375.864 800.642 394.27 784.046 414.358C758.073 445.689 737.056 480.816 721.726 518.517C720.604 521.267 725.069 522.464 726.179 519.744C751.261 458.473 791.303 404.47 842.642 362.673C844.947 360.795 841.663 357.545 839.376 359.407Z" fill="white"/>
<path d="M282.642 516.482C298.082 503.434 307.46 482.822 305 462.756C302.541 442.69 287.308 424.244 267.549 419.982C247.79 415.721 225.267 427.517 219.265 446.821C215.962 409.603 212.156 370.826 192.372 339.131C174.457 310.432 143.429 289.897 109.802 286.223C76.1741 282.55 40.7687 296.425 19.7964 322.971C-1.17581 349.516 -6.31078 388.108 8.37764 418.585C19.1981 441.036 39.1332 457.744 60.0201 471.338C126.657 514.704 209.32 532.791 287.974 521.214" fill="#F2F2F2"/>
<path d="M53.0504 297.194C80.7973 319.798 106.252 345.078 129.047 372.67C151.845 400.233 171.916 429.943 188.979 461.382C198.516 479.018 207.084 497.161 214.643 515.731C216.184 519.509 210.051 521.153 208.527 517.418C195.137 484.679 178.572 453.331 159.067 423.824C139.658 394.424 117.443 366.976 92.7343 341.867C78.7589 327.672 64.0138 314.256 48.5656 301.68C45.3991 299.101 49.9101 294.637 53.0504 297.194L53.0504 297.194Z" fill="white"/>
<path d="M630.243 523.851H261.886V145.851C261.886 65.4281 327.305 0 407.715 0H484.414C564.824 0 630.243 65.4281 630.243 145.851V523.851Z" fill="#F2F2F2"/>
<path d="M553.544 523.851H261.886V145.85C261.806 115.034 271.562 84.9973 289.736 60.1122C290.406 59.199 291.074 58.2975 291.763 57.406C300.553 45.8753 311.014 35.7204 322.8 27.2764C323.466 26.7919 324.134 26.3159 324.812 25.8398C334.674 19.014 345.343 13.434 356.574 9.22695C357.241 8.97412 357.92 8.72079 358.599 8.47781C368.757 4.85231 379.286 2.36886 389.993 1.07332C390.657 0.98263 391.339 0.911664 392.02 0.840697C402.454 -0.275105 412.978 -0.275105 423.412 0.840697C424.091 0.911664 424.773 0.982621 425.444 1.07429C436.149 2.36992 446.676 4.85306 456.831 8.47785C457.51 8.72083 458.189 8.97414 458.858 9.22747C469.951 13.3815 480.493 18.8782 490.251 25.5949C490.928 26.0606 491.607 26.5367 492.275 27.0128C498.882 31.7292 505.087 36.9836 510.828 42.7222C515.432 47.3253 519.722 52.2319 523.669 57.409C524.356 58.2976 525.024 59.199 525.693 60.1108C543.867 84.9961 553.624 115.034 553.544 145.85V523.851Z" fill="#CCCCCC"/>
<path d="M529.828 354.785C538.746 354.785 545.975 347.555 545.975 338.636C545.975 329.716 538.746 322.486 529.828 322.486C520.91 322.486 513.681 329.716 513.681 338.636C513.681 347.555 520.91 354.785 529.828 354.785Z" fill="#55299E"/>
<path d="M600.067 512.529H587.694L581.807 464.799L600.069 464.8L600.067 512.529Z" fill="#FFB8B8"/>
<path d="M578.856 508.993H602.717V524.019H563.832C563.832 522.046 564.221 520.092 564.976 518.269C565.731 516.446 566.838 514.79 568.233 513.394C569.628 511.999 571.284 510.892 573.107 510.137C574.929 509.382 576.883 508.993 578.856 508.993Z" fill="#2F2E41"/>
<path d="M661.628 512.529H649.255L643.368 464.799L661.63 464.8L661.628 512.529Z" fill="#FFB8B8"/>
<path d="M640.417 508.993H664.278V524.019H625.393C625.393 522.046 625.782 520.092 626.537 518.269C627.292 516.446 628.398 514.79 629.793 513.394C631.189 511.999 632.845 510.892 634.667 510.137C636.49 509.382 638.444 508.993 640.417 508.993Z" fill="#2F2E41"/>
<path d="M538 341.835C537.109 340.523 536.518 339.033 536.266 337.467C536.014 335.902 536.109 334.301 536.543 332.777C536.977 331.252 537.74 329.841 538.778 328.643C539.816 327.445 541.104 326.49 542.551 325.844L584.611 209.904L605.306 221.2L557.284 331.996C558.208 334.5 558.181 337.256 557.21 339.741C556.238 342.227 554.388 344.27 552.011 345.482C549.634 346.695 546.895 346.994 544.312 346.321C541.73 345.649 539.484 344.053 538 341.835Z" fill="#FFB8B8"/>
<path d="M655.307 363.621C653.932 362.832 652.747 361.752 651.834 360.456C650.922 359.159 650.305 357.679 650.026 356.118C649.748 354.558 649.815 352.955 650.223 351.423C650.631 349.892 651.37 348.468 652.387 347.253L639.358 224.608L662.91 225.684L668.325 346.321C670.253 348.166 671.438 350.655 671.654 353.315C671.87 355.975 671.104 358.622 669.499 360.754C667.894 362.887 665.563 364.356 662.948 364.885C660.332 365.413 657.613 364.963 655.307 363.621Z" fill="#FFB8B8"/>
<path d="M617.734 188.428C631.424 188.428 642.521 177.329 642.521 163.638C642.521 149.946 631.424 138.847 617.734 138.847C604.045 138.847 592.947 149.946 592.947 163.638C592.947 177.329 604.045 188.428 617.734 188.428Z" fill="#FFB8B8"/>
<path d="M655.149 335.728H580.421L580.511 335.146C580.646 334.277 593.829 247.899 584.106 219.64C583.13 216.863 583.216 213.824 584.347 211.106C585.478 208.388 587.573 206.185 590.231 204.921H590.231C604.13 198.375 630.808 190.314 653.326 209.876C656.64 212.802 659.227 216.458 660.884 220.557C662.541 224.655 663.222 229.083 662.873 233.49L655.149 335.728Z" fill="#55299E"/>
<path d="M594.774 260.664L561.131 253.838L576.9 216.462C577.844 212.842 580.185 209.744 583.409 207.848C586.634 205.952 590.479 205.412 594.1 206.347C597.722 207.282 600.825 209.616 602.729 212.836C604.633 216.056 605.182 219.9 604.255 223.525L594.774 260.664Z" fill="#55299E"/>
<path d="M637.862 273.339L635.84 226.968C634.306 218.251 639.295 210.011 646.968 208.664C654.644 207.322 662.138 213.368 663.679 222.149L671.281 265.478L637.862 273.339Z" fill="#55299E"/>
<path d="M652.663 330.176C664.687 375.977 665.999 434.209 662.755 497.727L646.608 495.709L617.341 374.587L601.194 497.727L583.028 496.718C577.602 430.071 572.318 372.856 581.01 335.223L652.663 330.176Z" fill="#2F2E41"/>
<path d="M634.066 182.797C629.442 187.723 620.855 185.078 620.252 178.348C620.205 177.826 620.208 177.3 620.262 176.778C620.573 173.797 622.295 171.09 621.883 167.943C621.79 167.159 621.498 166.413 621.035 165.774C617.35 160.839 608.7 167.981 605.223 163.513C603.09 160.774 605.597 156.461 603.961 153.399C601.801 149.358 595.404 151.352 591.392 149.139C586.929 146.676 587.196 139.827 590.134 135.661C593.717 130.581 600 127.87 606.204 127.479C612.408 127.088 618.569 128.765 624.362 131.023C630.943 133.588 637.469 137.133 641.519 142.921C646.444 149.959 646.918 159.421 644.454 167.652C642.956 172.658 637.842 178.774 634.066 182.797Z" fill="#2F2E41"/>
<path d="M847.705 524.5H102.622C102.304 524.499 102 524.372 101.775 524.147C101.55 523.922 101.424 523.617 101.424 523.298C101.424 522.98 101.55 522.675 101.775 522.45C102 522.225 102.304 522.098 102.622 522.097H847.705C848.023 522.098 848.328 522.225 848.553 522.45C848.777 522.675 848.903 522.98 848.903 523.298C848.903 523.617 848.777 523.922 848.553 524.147C848.328 524.372 848.023 524.499 847.705 524.5Z" fill="#3F3D56"/>
<path d="M473.312 414.337H342.117C340.389 414.346 338.728 413.669 337.498 412.456C336.269 411.242 335.57 409.589 335.557 407.861V114.98C335.57 113.252 336.269 111.6 337.498 110.386C338.728 109.172 340.389 108.495 342.117 108.505H473.312C475.04 108.495 476.701 109.172 477.931 110.386C479.161 111.6 479.859 113.252 479.872 114.98V407.861C479.859 409.589 479.161 411.242 477.931 412.456C476.701 413.669 475.04 414.346 473.312 414.337Z" fill="white"/>
<path d="M479.872 203.272H335.557V205.291H479.872V203.272Z" fill="#CCCCCC"/>
<path d="M480.377 318.449H336.062V320.467H480.377V318.449Z" fill="#CCCCCC"/>
<path d="M382.99 108.505H380.971V415.346H382.99V108.505Z" fill="#CCCCCC"/>
<path d="M433.449 108.505H431.431V415.346H433.449V108.505Z" fill="#CCCCCC"/>
</g>
<defs>
<clipPath id="clip0_488_3673">
<rect width="878" height="525" fill="white"/>
</clipPath>
</defs>
</svg>
