<svg width="187" height="30" viewBox="0 0 187 30" fill="none" xmlns="http://www.w3.org/2000/svg">
<path d="M0 0H16.89V29.3644H0C11.5521 18.4185 11.8221 12.0033 0 0Z" fill="#F9F9F9"/>
<path d="M19.4131 7.35161V10.9582H28.5333V17.8813H19.4131V22.0269H29.777V29.3645H10.21V0.0139771H29.777V7.35161H19.4131Z" fill="#F9F9F9"/>
<path d="M44.8197 20.6174L48.5507 5.98358H58.3343L50.5406 29.3645H39.0574L31.2638 5.98358H41.0473L44.8197 20.6174Z" fill="#F9F9F9"/>
<path d="M83.1288 17.4668C83.1288 18.1024 83.0873 18.7104 83.0044 19.2908H68.2048C68.3429 21.3083 69.1859 22.3171 70.7336 22.3171C71.7285 22.3171 72.4471 21.8611 72.8892 20.949H82.6313C82.2997 22.6073 81.5949 24.0997 80.5171 25.4262C79.4669 26.7252 78.1265 27.7616 76.4959 28.5354C74.8929 29.2816 73.1242 29.6547 71.1896 29.6547C68.8681 29.6547 66.7953 29.1711 64.9712 28.2038C63.1748 27.2365 61.7653 25.8546 60.7428 24.0582C59.7478 22.2342 59.2504 20.1061 59.2504 17.6741C59.2504 15.242 59.7478 13.1278 60.7428 11.3313C61.7653 9.5073 63.1748 8.11163 64.9712 7.14434C66.7953 6.17704 68.8681 5.69339 71.1896 5.69339C73.5111 5.69339 75.57 6.17704 77.3664 7.14434C79.1905 8.084 80.6 9.43821 81.5949 11.207C82.6175 12.9758 83.1288 15.0624 83.1288 17.4668ZM73.8013 15.2696C73.8013 14.4958 73.5525 13.9154 73.0551 13.5285C72.5576 13.1139 71.9358 12.9067 71.1896 12.9067C69.559 12.9067 68.6055 13.6943 68.3291 15.2696H73.8013Z" fill="#F9F9F9"/>
<path d="M102.132 5.81776C104.813 5.81776 106.9 6.71596 108.392 8.51237C109.912 10.3088 110.672 12.7408 110.672 15.8086V29.3645H101.511V16.9693C101.511 15.8638 101.207 14.9933 100.599 14.3576C100.018 13.6943 99.2306 13.3627 98.2356 13.3627C97.2131 13.3627 96.4116 13.6943 95.8312 14.3576C95.2508 14.9933 94.9606 15.8638 94.9606 16.9693V29.3645H85.7575V5.98358H94.9606V9.54876C95.6792 8.44328 96.6327 7.54507 97.8211 6.85415C99.0371 6.16322 100.474 5.81776 102.132 5.81776Z" fill="#F9F9F9"/>
<path d="M128.932 21.5294V29.3645H125.45C119.038 29.3645 115.832 26.1724 115.832 19.7883V13.6529H112.93V5.98358H115.832V0.34562H125.035V5.98358H128.849V13.6529H125.035V19.9541C125.035 20.5069 125.16 20.9076 125.408 21.1563C125.685 21.4051 126.127 21.5294 126.735 21.5294H128.932Z" fill="#F9F9F9"/>
<path d="M150.634 10.3916C150.275 9.81121 149.763 9.36902 149.1 9.06501C148.437 8.73337 147.635 8.56755 146.696 8.56755C144.927 8.56755 143.559 9.14792 142.592 10.3087C141.624 11.4418 141.141 13.0033 141.141 14.9932C141.141 17.287 141.68 19.0005 142.758 20.1337C143.835 21.2668 145.494 21.8333 147.732 21.8333C149.86 21.8333 151.574 20.9766 152.873 19.2631H145.535V12.7546H160.5V21.9577C159.229 24.141 157.474 26.0203 155.236 27.5957C152.997 29.1433 150.164 29.9172 146.737 29.9172C143.697 29.9172 141.044 29.2953 138.778 28.0517C136.539 26.7804 134.812 25.0116 133.596 22.7454C132.407 20.4791 131.813 17.8951 131.813 14.9932C131.813 12.0913 132.407 9.50721 133.596 7.24097C134.812 4.97473 136.539 3.21978 138.778 1.97611C141.016 0.704805 143.642 0.0691528 146.654 0.0691528C150.496 0.0691528 153.619 0.994995 156.023 2.84668C158.455 4.69836 159.892 7.21333 160.335 10.3916H150.634Z" fill="#FF6392"/>
<path d="M174.643 30.0001C172.294 30.0001 170.18 29.5164 168.3 28.5491C166.421 27.5818 164.943 26.2 163.865 24.4036C162.815 22.5795 162.289 20.4515 162.289 18.0194C162.289 15.5874 162.815 13.4731 163.865 11.6767C164.943 9.85267 166.421 8.457 168.3 7.4897C170.18 6.52241 172.294 6.03876 174.643 6.03876C176.992 6.03876 179.107 6.52241 180.986 7.4897C182.865 8.457 184.33 9.85267 185.38 11.6767C186.458 13.4731 186.997 15.5874 186.997 18.0194C186.997 20.4515 186.458 22.5795 185.38 24.4036C184.33 26.2 182.865 27.5818 180.986 28.5491C179.107 29.5164 176.992 30.0001 174.643 30.0001ZM174.643 22.0406C175.5 22.0406 176.218 21.709 176.799 21.0457C177.379 20.3548 177.669 19.346 177.669 18.0194C177.669 16.6928 177.379 15.6979 176.799 15.0346C176.218 14.3437 175.5 13.9982 174.643 13.9982C173.786 13.9982 173.068 14.3437 172.487 15.0346C171.907 15.6979 171.617 16.6928 171.617 18.0194C171.617 19.346 171.893 20.3548 172.446 21.0457C173.026 21.709 173.759 22.0406 174.643 22.0406Z" fill="#FF6392"/>
</svg>
